# xmcd
#
# Track frame offsets:
#	150
#	19590
#	52192
#	72260
#	101805
#	120887
#	149785
#	169502
#	193315
#	215047
#	237615
#
# Disc length: 3445 seconds
#
# Revision: 0
# Processed by: cddbd v1.5.2PL0 Copyright (c) Steve Scherf et al.
# Submitted via: audiograbber 1.83.01
#
DISCID=ac0d730b
DTITLE=The Bruce Katz Band - Three Feet Off The Ground [SACD]
DYEAR=2000
DGENRE=BluesRock
TTITLE0=Beef Jerky
TTITLE1=In The Shadow
TTITLE2=Wrecking Ball
TTITLE3=Way Down Time
TTITLE4=Three Feet Off The Ground
TTITLE5=Walk With Me
TTITLE6=You're It
TTITLE7=Jet Lag
TTITLE8=The Hook
TTITLE9=Key To The City
TTITLE10=Switchin'
EXTD=
EXTT0=
EXTT1=
EXTT2=
EXTT3=
EXTT4=
EXTT5=
EXTT6=
EXTT7=
EXTT8=
EXTT9=
EXTT10=
PLAYORDER=
